<svg width="161" height="28" viewBox="0 0 161 28" fill="none" xmlns="http://www.w3.org/2000/svg">
<path d="M37.0163 23.3617C40.0452 23.3617 41.6422 22.0326 42.4132 21.0291C43.9827 18.9676 44.1204 15.7128 44.1204 13.6514C44.1204 11.373 44.0378 8.66057 42.1654 6.62628C41.0089 5.37858 39.1916 4.375 36.5206 4.375H28.9759C27.8194 4.375 27.1861 4.89035 26.9107 5.18872C26.2774 5.89394 26.2499 6.70765 26.2499 7.41287V20.9477C26.2499 22.0055 26.6905 22.5751 27.0484 22.8463C27.1861 22.9548 27.7643 23.3617 29.1962 23.3617H37.0163ZM29.8846 8.36221C29.8846 7.95535 30.0498 7.57562 30.2701 7.41287C30.5179 7.22301 30.9034 7.22301 31.1237 7.22301H34.896C36.1902 7.22301 37.9249 7.46712 39.0264 8.60632C40.2379 9.85402 40.3756 11.7527 40.3756 13.3801C40.3756 16.6079 39.88 18.0183 39.4119 18.7506C38.5858 20.0797 37.2641 20.5137 35.254 20.5137H31.0686C30.7382 20.5137 30.3802 20.5137 30.1324 20.2425C29.857 19.9441 29.8846 19.5915 29.8846 19.2118V8.36221Z" fill="#363740"/>
<path d="M47.0123 8.98606V11.4272H54.1991C54.6947 11.4272 55.328 11.5086 55.7686 12.0511C56.1265 12.485 56.1816 12.9733 56.1816 13.4072V14.4108H49.8485C49.0775 14.4108 48.0862 14.4651 47.1775 15.2517C46.0761 16.201 45.9384 17.4758 45.9384 18.7506C45.9384 19.8085 46.021 21.6529 47.205 22.6565C48.0311 23.3617 49.0499 23.3617 49.8485 23.3617H56.8149C57.5033 23.3617 58.3018 23.3075 58.825 22.7921C59.3482 22.2767 59.4033 21.463 59.4033 20.9477V13.4886C59.4033 11.8883 58.9352 10.722 58.3294 10.0981C57.6685 9.42004 56.5396 8.98606 55.3005 8.98606H47.0123ZM56.1816 16.852V20.1611C56.1816 20.3781 56.1816 20.5679 55.9613 20.7578C55.741 20.9206 55.4382 20.9206 55.2454 20.9206H50.7571C50.3441 20.9206 49.9311 20.7036 49.7108 20.4866C49.3253 20.0797 49.2702 19.3202 49.2702 18.8863C49.2702 17.8556 49.518 17.4758 49.6282 17.3402C49.9861 16.8791 50.5919 16.852 50.8122 16.852H56.1816Z" fill="#363740"/>
<path d="M61.5975 23.3617H64.8192V8.98606H61.5975V23.3617ZM64.8192 6.89752V4.375H61.5975V6.89752H64.8192Z" fill="#363740"/>
<path d="M67.0293 23.3617H70.251V4.375H67.0293V23.3617Z" fill="#363740"/>
<path d="M86.9448 9.04031H83.6681L78.7117 20.0255L74.0306 8.98606H70.6988L77.1972 23.3075L74.9668 27.9999H78.2436L86.9448 9.04031Z" fill="#363740"/>
<path d="M111.627 14.0582H107.993V19.2389C107.993 19.5372 107.993 19.917 107.69 20.2153C107.387 20.5137 107.056 20.5137 106.726 20.5137H102.017C100.475 20.5137 99.1262 20.1068 98.3277 18.5337C98.0248 17.9369 97.5567 16.635 97.5567 13.8684C97.5567 11.1288 98.0248 9.88114 98.3552 9.28442C99.0987 7.95535 100.531 7.22301 102.623 7.22301H111.187V4.375H101.604C99.7595 4.375 98.1349 4.78186 96.9509 5.54133C94.1148 7.35862 93.8119 10.8576 93.8119 13.9768C93.8119 16.635 94.0046 19.9441 96.3451 21.8699C97.2263 22.6022 98.6857 23.3617 100.833 23.3617H109.039C109.59 23.3617 110.416 23.199 110.911 22.7921C111.269 22.4937 111.627 21.897 111.627 20.9206V14.0582Z" fill="#363740"/>
<path d="M113.818 23.3617H117.04V15.2517C117.04 14.1667 117.177 13.1631 117.783 12.4308C118.554 11.5357 119.683 11.4272 120.537 11.4272H121.886V8.98606H119.711C118.582 8.98606 116.682 9.06743 115.333 10.2338C114.093 11.2916 113.818 12.8376 113.818 14.4108V23.3617Z" fill="#363740"/>
<path d="M129.829 8.82331C128.095 8.82331 125.534 8.87756 123.937 10.3422C122.257 11.8883 122.064 14.6007 122.064 16.2281C122.064 17.6928 122.202 20.4052 123.937 21.9784C125.534 23.416 128.095 23.5244 129.829 23.5244C131.509 23.5244 134.152 23.416 135.722 21.9784C136.796 20.9748 137.594 19.1575 137.594 16.1196C137.594 14.6007 137.402 11.8883 135.722 10.3422C134.125 8.87756 131.564 8.82331 129.829 8.82331ZM125.396 16.201C125.396 15.2788 125.396 13.4344 126.305 12.4037C127.213 11.373 128.783 11.2645 129.829 11.2645C130.986 11.2645 132.39 11.373 133.326 12.4037C134.345 13.5157 134.263 15.1432 134.263 16.201C134.263 17.4487 134.263 18.832 133.299 19.8898C132.335 20.9477 131.041 21.0833 129.829 21.0833C128.673 21.0833 127.269 20.9477 126.332 19.8898C125.424 18.8591 125.396 17.3945 125.396 16.201Z" fill="#363740"/>
<path d="M140.739 8.98606H137.655L141.125 21.5715C141.317 22.331 141.675 23.5244 143.63 23.5244C145.31 23.5244 145.916 22.6565 146.136 21.9241L148.669 12.919C148.697 12.8105 148.752 12.4579 148.89 12.4579C149.027 12.4579 149.082 12.8105 149.11 12.919L151.643 21.9241C152.056 23.3888 153.378 23.5244 154.149 23.5244C155.223 23.5244 156.187 23.2532 156.655 21.5715L160.124 8.98606H157.04L154.259 19.6186C154.204 19.8085 154.094 20.0526 153.956 20.0526C153.819 20.0526 153.736 19.7542 153.708 19.6457L151.01 10.1524C150.68 8.95893 149.551 8.82331 148.89 8.82331C148.339 8.82331 147.127 8.87756 146.77 10.1524L144.099 19.6457C144.071 19.7271 143.988 20.0526 143.823 20.0526C143.686 20.0526 143.575 19.7542 143.548 19.6186L140.739 8.98606Z" fill="#363740"/>
<path d="M0.688751 9.82693V0L6.08456 5.24997L0.688751 9.82693Z" fill="#03A3EA"/>
<path d="M5.93872 15.1666L6.08455 5.25L11.1887 10.2083L5.93872 15.1666Z" fill="#039DE5"/>
<path d="M11.1904 19.8379V10.2081L16.4404 15.1664L11.1904 19.8379Z" fill="#0256B2"/>
<path d="M5.93986 15.1666L6.08569 5.25L0.689887 9.84264L5.93986 15.1666Z" fill="#0399E2"/>
<path d="M11.1904 19.8331V10.2081L5.94043 15.1664L11.1904 19.8331Z" fill="#0381D1"/>
<path d="M11.1901 19.8334L5.94009 15.1667L1.85681 18.867L1.12688 19.5417C-1.06067 21.7292 0.252655 26.5417 2.37945 28L11.1901 19.8334Z" fill="#0256B2"/>
</svg>
